<?xml version="1.0" encoding="UTF-8"?>
<svg id="Livello_1" data-name="Livello 1" xmlns="http://www.w3.org/2000/svg" viewBox="0 0 1080 1080">
  <defs>
    <style>
      .cls-1 {
        fill: none;
        stroke-width: 7.5px;
      }

      .cls-1, .cls-2 {
        stroke: #fff;
        stroke-miterlimit: 10;
      }

      .cls-2 {
        fill: #fff;
      }
    </style>
  </defs>
  <path class="cls-1" d="M771.23,353.53h221.48c7.35,0,13.3,5.96,13.3,13.3v9.73c0,7.35-5.96,13.3-13.3,13.3H205.1"/>
  <path class="cls-1" d="M163.79,389.88H68.78c-7.35,0-13.3-5.96-13.3-13.3v-9.73c0-7.35,5.96-13.3,13.3-13.3H729.92"/>
  <path class="cls-1" d="M729.92,353.53H124.75c-10.23,0-18.52-8.29-18.52-18.52v-16.34c0-10.23,8.29-18.52,18.52-18.52H936.74c10.23,0,18.52,8.29,18.52,18.52v16.34c0,10.23-8.29,18.52-18.52,18.52h-165.51"/>
  <line class="cls-1" x1="327.55" y1="300.13" x2="734.73" y2="300.13"/>
  <path class="cls-1" d="M730.13,236.62c-26.82-85.97-106.64-148.34-200.93-148.34s-173.71,62.05-200.73,147.68"/>
  <path class="cls-1" d="M106.23,719.55V412.28c0-12.37,10.03-22.4,22.4-22.4h35.15"/>
  <path class="cls-1" d="M343.22,886.83c-1.63,10.77-10.92,19.04-22.15,19.04H128.64c-12.37,0-22.4-10.03-22.4-22.4v-163.91"/>
  <path class="cls-1" d="M718.02,609.81v-54.49c0-12.37-10.03-22.4-22.41-22.4H365.88c-12.37,0-22.4,10.03-22.4,22.4v290.24"/>
  <path class="cls-1" d="M955.26,473.29v410.17c0,12.37-10.03,22.4-22.41,22.4h-192.43c-12.37,0-22.41-10.03-22.41-22.4v-232.33"/>
  <path class="cls-1" d="M205.1,389.88H932.85c12.37,0,22.4,10.03,22.4,22.4v19.7"/>
  <path class="cls-1" d="M256.52,548.59h3.58c6.32,0,11.45,5.13,11.45,11.45v38.28c0,6.33-5.13,11.45-11.45,11.45h-70.5c-6.33,0-11.45-5.13-11.45-11.45v-38.28c0-6.33,5.13-11.45,11.45-11.45h25.61"/>
  <path class="cls-1" d="M801.39,548.59h70.5c6.32,0,11.45,5.13,11.45,11.45v38.29c0,6.32-5.13,11.45-11.45,11.45h-70.49c-6.32,0-11.45-5.13-11.45-11.45v-38.28c0-6.32,5.13-11.45,11.45-11.45Z"/>
  <path class="cls-1" d="M789.94,719.55v-26.43c0-7.08,5.74-12.82,12.82-12.82h67.75c7.08,0,12.82,5.74,12.82,12.82v133.25c0,7.08-5.74,12.82-12.82,12.82h-67.75c-7.08,0-12.82-5.74-12.82-12.82v-65.51"/>
  <path class="cls-1" d="M190.98,680.29h67.75c7.08,0,12.82,5.75,12.82,12.82v133.25c0,7.08-5.75,12.82-12.82,12.82h-67.75c-7.08,0-12.82-5.75-12.82-12.82v-133.24c0-7.08,5.75-12.82,12.82-12.82Z"/>
  <line class="cls-1" x1="426.29" y1="674.02" x2="430.03" y2="564.26"/>
  <path class="cls-1" d="M481.64,564.26l11.13,326.43c.28,8.3-6.36,15.17-14.67,15.17h-44.55c-8.3,0-14.95-6.88-14.66-15.17l5.98-175.36"/>
  <path class="cls-1" d="M631.46,564.26l7.37,216.19,3.76,110.24c.28,8.3-6.36,15.17-14.67,15.17h-44.55c-8.3,0-14.95-6.88-14.66-15.17l11.13-326.43"/>
  <rect class="cls-1" x="406.48" y="532.92" width="98.72" height="31.34" rx="10.9" ry="10.9"/>
  <rect class="cls-1" x="556.29" y="532.92" width="98.72" height="31.34" rx="10.9" ry="10.9"/>
  <line class="cls-2" x1="520.42" y1="247.92" x2="724.37" y2="247.92"/>
  <line class="cls-1" x1="520.42" y1="247.92" x2="724.37" y2="247.92"/>
  <line class="cls-2" x1="333.66" y1="247.92" x2="479.12" y2="247.92"/>
  <line class="cls-1" x1="333.66" y1="247.92" x2="479.12" y2="247.92"/>
  <path class="cls-1" d="M395.36,247.92c15.13-91.81,69.27-159.65,133.83-159.65"/>
  <path class="cls-1" d="M270.12,227.27v-16.48c0-5.68,5.2-9.83,10.78-8.79,34.33,6.39,61.21,42.85,64.59,88.39,.39,5.24-3.69,9.74-8.94,9.74h-57.47c-4.95,0-8.96-4.01-8.96-8.96v-22.59"/>
  <path class="cls-1" d="M778.01,201.94c-34.58,6.12-61.71,42.72-65.11,88.49-.39,5.24,3.68,9.74,8.94,9.74h57.47c4.95,0,8.96-4.01,8.96-8.96v-80.4c0-5.47-4.88-9.82-10.27-8.87Z"/>
  <path class="cls-1" d="M418.14,247.92c12.56-91.81,57.48-159.65,111.06-159.65"/>
  <path class="cls-1" d="M476.99,247.92c5.9-91.81,27.02-159.65,52.2-159.65"/>
  <path class="cls-1" d="M500.63,228.25c4.21-81.66,15.4-139.97,28.56-139.97"/>
  <path class="cls-1" d="M558.63,247.92c-3.33-91.81-15.23-159.65-29.43-159.65"/>
  <path class="cls-1" d="M581.4,247.92c-5.9-91.81-27.02-159.65-52.2-159.65"/>
  <path class="cls-1" d="M640.26,247.92c-12.56-91.81-57.48-159.65-111.06-159.65"/>
  <path class="cls-1" d="M663.03,247.92c-15.13-91.81-69.27-159.65-133.83-159.65"/>
  <path class="cls-1" d="M738.61,630.47c0,11.41-9.25,20.66-20.66,20.66s-20.65-9.25-20.65-20.66,9.25-20.66,20.65-20.66,20.66,9.25,20.66,20.66Z"/>
  <path class="cls-1" d="M364.17,866.22c0,11.41-9.25,20.66-20.66,20.66s-20.65-9.25-20.65-20.66,9.25-20.66,20.65-20.66,20.66,9.25,20.66,20.66Z"/>
  <circle class="cls-1" cx="235.87" cy="548.59" r="20.66" transform="translate(-191.98 132.02) rotate(-22.5)"/>
  <circle class="cls-1" cx="789.94" cy="740.2" r="20.66" transform="translate(-223.13 358.64) rotate(-22.5)"/>
  <path class="cls-1" d="M290.77,247.93c0,11.41-9.25,20.66-20.66,20.66s-20.65-9.25-20.65-20.66,9.25-20.66,20.65-20.66,20.66,9.25,20.66,20.66Z"/>
  <path class="cls-1" d="M771.23,353.54c0,11.41-9.25,20.66-20.66,20.66s-20.65-9.25-20.65-20.66,9.25-20.66,20.65-20.66,20.66,9.25,20.66,20.66Z"/>
  <path class="cls-1" d="M205.1,389.88c0,11.41-9.25,20.66-20.66,20.66s-20.65-9.25-20.65-20.66,9.25-20.66,20.65-20.66,20.66,9.25,20.66,20.66Z"/>
  <circle class="cls-1" cx="955.26" cy="452.64" r="20.66" transform="translate(-100.5 400.02) rotate(-22.5)"/>
  <path class="cls-1" d="M520.42,247.93c0,11.41-9.25,20.66-20.66,20.66s-20.65-9.25-20.65-20.66,9.25-20.66,20.65-20.66,20.66,9.25,20.66,20.66Z"/>
  <path class="cls-1" d="M424.88,715.32c-11.09-.36-19.97-9.47-19.97-20.64s9.25-20.66,20.66-20.66,20.66,9.25,20.66,20.66-9.25,20.66-20.66,20.66c-.23,0-.46,0-.69-.01"/>
</svg>