<?xml version="1.0" encoding="UTF-8"?>
<svg id="Livello_1" data-name="Livello 1" xmlns="http://www.w3.org/2000/svg" viewBox="0 0 1080 1080">
  <defs>
    <style>
      .cls-1 {
        stroke-linecap: round;
        stroke-linejoin: round;
      }

      .cls-1, .cls-2 {
        fill: none;
        stroke: #fff;
        stroke-width: 7.5px;
      }

      .cls-2 {
        stroke-miterlimit: 10;
      }
    </style>
  </defs>
  <path class="cls-2" d="M824.83,535.32v-222.38c0-14.03,11.37-25.4,25.4-25.4h42.02"/>
  <path class="cls-2" d="M933.43,287.54h8.53c14.02,0,25.4,11.37,25.4,25.4v349.84"/>
  <path class="cls-2" d="M121.18,431.39v-118.45c0-14.03,11.37-25.4,25.4-25.4h91.74c14.03,0,25.4,11.37,25.4,25.4v317.53"/>
  <path class="cls-2" d="M517.48,574.95c-6.93-1.41-12.14-7.54-12.14-14.88v-93.77c0-8.39,6.8-15.19,15.19-15.19h47.21c8.39,0,15.19,6.8,15.19,15.19v93.77c0,8.39-6.8,15.19-15.19,15.19h-9.15"/>
  <path class="cls-2" d="M824.83,535.32v-105.89c0-20.97-15.45-37.97-34.51-37.97H298.22c-19.06,0-34.51,17-34.51,37.97v201.05"/>
  <circle class="cls-2" cx="824.57" cy="555.91" r="20.59" transform="translate(-4.57 1104.98) rotate(-67.5)"/>
  <path class="cls-2" d="M270.59,675.19c11.37,0,20.59,9.22,20.59,20.59s-9.22,20.59-20.59,20.59-20.59-9.22-20.59-20.59,9.22-20.59,20.59-20.59"/>
  <circle class="cls-2" cx="620.92" cy="827.92" r="20.59" transform="translate(-269.57 300.64) rotate(-22.5)"/>
  <path class="cls-2" d="M121.18,472.57c-11.37,0-20.59-9.22-20.59-20.59s9.22-20.59,20.59-20.59,20.59,9.22,20.59,20.59-9.22,20.59-20.59,20.59v183.11"/>
  <path class="cls-2" d="M933.43,287.54c0,11.37-9.22,20.59-20.59,20.59s-20.59-9.22-20.59-20.59,9.22-20.59,20.59-20.59,20.59,9.22,20.59,20.59Z"/>
  <circle class="cls-2" cx="967.36" cy="683.37" r="20.59" transform="translate(-34.18 1315.58) rotate(-67.5)"/>
  <line class="cls-2" x1="476.5" y1="150.91" x2="691.13" y2="150.91"/>
  <line class="cls-2" x1="397.41" y1="150.91" x2="435.32" y2="150.91"/>
  <line class="cls-2" x1="674.99" y1="211.04" x2="736.53" y2="211.04"/>
  <line class="cls-2" x1="352.42" y1="211.04" x2="633.8" y2="211.04"/>
  <line class="cls-2" x1="518.47" y1="271.18" x2="761.33" y2="271.18"/>
  <line class="cls-2" x1="327.46" y1="271.18" x2="477.29" y2="271.18"/>
  <path class="cls-2" d="M321.19,391.45v-57.49c0-134.31,99.88-243.2,223.08-243.2s223.08,108.88,223.08,243.2v57.49H321.19Z"/>
  <path class="cls-2" d="M444.97,168.35c-22.49,43.4-36.24,101.6-36.24,165.62v57.49"/>
  <path class="cls-2" d="M544.27,90.77c-28.61,0-55.14,15.87-77,42.96"/>
  <path class="cls-2" d="M496.99,291.77c-.47,13.7-.72,27.8-.72,42.2v57.49"/>
  <path class="cls-2" d="M544.27,90.77c-20.75,0-38.41,66.54-45.12,159.86"/>
  <path class="cls-2" d="M544.27,90.77c21.85,0,39.53,108.77,39.53,243.2v57.49"/>
  <path class="cls-2" d="M659.45,231c7.63,31.26,11.9,66.15,11.9,102.96v57.49"/>
  <path class="cls-2" d="M544.27,90.77c42.47,0,80.03,39.76,103.1,100.91"/>
  <path class="cls-2" d="M674.99,211.04c0,11.37-9.22,20.59-20.59,20.59s-20.59-9.22-20.59-20.59,9.22-20.59,20.59-20.59,20.59,9.22,20.59,20.59Z"/>
  <circle class="cls-2" cx="455.91" cy="150.91" r="20.59" transform="translate(-23.05 185.96) rotate(-22.5)"/>
  <path class="cls-2" d="M499.15,250.63c10.78,.66,19.32,9.61,19.32,20.55s-9.22,20.59-20.59,20.59-20.59-9.22-20.59-20.59,9.22-20.59,20.59-20.59c.43,0,.85,.01,1.27,.04"/>
  <line class="cls-2" x1="321.19" y1="331.32" x2="767.35" y2="331.32"/>
  <path class="cls-2" d="M558.6,575.25c0,11.37-9.22,20.59-20.59,20.59s-20.59-9.22-20.59-20.59,9.22-20.59,20.59-20.59,20.59,9.22,20.59,20.59Z"/>
  <path class="cls-1" d="M967.33,662.78v-23.02c0-5.13-4.15-9.29-9.27-9.29H130.45c-5.12,0-9.27,4.16-9.27,9.29v256.82c0,5.13,4.15,9.28,9.27,9.28h71.58c5.12,0,9.27-4.16,9.27-9.28"/>
  <line class="cls-2" x1="824.57" y1="576.5" x2="824.57" y2="630.47"/>
  <path class="cls-2" d="M251.77,704.12c-19.61,14.02-40.48,44.25-40.48,79.33v113.12"/>
  <path class="cls-2" d="M620.92,807.33v-46.61c0-48.46-49.32-87.67-75.73-87.67s-75.72,39.21-75.72,87.67v135.85c0,5.13-4.15,9.29-9.27,9.29h-117.33c-5.12,0-9.27-4.16-9.27-9.29v-113.12c0-36.84-23.01-68.33-43.42-81.32"/>
  <path class="cls-2" d="M967.33,703.95v192.62c0,5.13-4.15,9.29-9.27,9.29h-69.65c-5.12,0-9.27-4.16-9.27-9.28v-113.12c0-48.46-39.83-87.67-61.15-87.67s-61.15,39.21-61.15,87.67v113.12c0,5.13-4.15,9.29-9.27,9.29h-117.33c-5.12,0-9.27-4.16-9.27-9.29l-.06-2.48v-45.58"/>
</svg>