<?xml version="1.0" encoding="UTF-8"?>
<svg id="Livello_1" data-name="Livello 1" xmlns="http://www.w3.org/2000/svg" viewBox="0 0 1080 1080">
  <defs>
    <style>
      .cls-1 {
        fill: none;
      }

      .cls-1, .cls-2 {
        stroke: #fff;
        stroke-miterlimit: 10;
        stroke-width: 7px;
      }

      .cls-2 {
        fill: #fff;
      }
    </style>
  </defs>
  <path class="cls-1" d="M408.25,584.82s-13.3-174.11,76.1-28.23c89.41,145.88,82.12,26.19,82.12,26.19,0,0-9.97-129.72,7.28-137.56,17.25-7.84,98.82,141.17,119.21,133.33,20.39-7.84,17.25-103.53,17.25-103.53l75.29-313.71"/>
  <line class="cls-1" x1="950.73" y1="310.68" x2="710.13" y2="488.71"/>
  <polyline class="cls-1" points="226.84 918.5 407.98 584.4 253.5 166.77"/>
  <polyline class="cls-1" points="178.09 918.5 359.23 584.4 204.75 166.77"/>
  <polyline class="cls-1" points="129.34 918.5 310.48 584.4 156.01 166.77"/>
  <path class="cls-2" d="M745.09,315.77l-4.53-28.48c-.39-2.43,1.82-4.46,4.21-3.89l21.47,5.14c2.39,.57,3.43,3.39,1.99,5.38l-16.94,23.34c-1.8,2.48-5.71,1.55-6.19-1.48Z"/>
  <path class="cls-2" d="M825.83,406.63l-15.95,24.03c-1.36,2.05-4.36,2.05-5.73,.02l-12.32-18.32c-1.37-2.04-.23-4.81,2.18-5.3l28.27-5.7c3.01-.61,5.25,2.73,3.55,5.28Z"/>
  <path class="cls-2" d="M318.8,756.13l-3.14,28.55c-.27,2.46-2.96,3.86-5.13,2.67l-19.27-10.59c-2.17-1.19-2.43-4.21-.5-5.76l22.41-17.96c2.42-1.94,5.97,.01,5.63,3.09Z"/>
  <path class="cls-2" d="M282.27,734.42l-3.15,28.67c-.27,2.44-2.93,3.83-5.08,2.64l-19.35-10.63c-2.15-1.18-2.41-4.17-.5-5.71l22.5-18.04c2.4-1.92,5.92,.01,5.58,3.07Z"/>
  <path class="cls-2" d="M243.74,712.88l-3.15,28.67c-.27,2.44-2.93,3.83-5.08,2.64l-19.35-10.63c-2.15-1.18-2.41-4.17-.5-5.71l22.5-18.04c2.4-1.92,5.92,.01,5.58,3.07Z"/>
  <path class="cls-2" d="M246.23,399.36l19.15,21.56c1.63,1.84,.87,4.74-1.45,5.54l-20.86,7.23c-2.32,.8-4.71-1.01-4.57-3.46l1.71-28.79c.18-3.06,3.98-4.38,6.02-2.08Z"/>
  <path class="cls-2" d="M288.6,384.07l19.15,21.56c1.63,1.84,.87,4.74-1.45,5.54l-20.86,7.23c-2.32,.8-4.71-1.01-4.57-3.46l1.71-28.79c.18-3.06,3.98-4.38,6.02-2.08Z"/>
  <path class="cls-2" d="M331.21,367.95l19.15,21.56c1.63,1.84,.87,4.74-1.45,5.54l-20.86,7.23c-2.32,.8-4.71-1.01-4.57-3.46l1.71-28.79c.18-3.06,3.98-4.38,6.02-2.08Z"/>
</svg>