<?xml version="1.0" encoding="UTF-8"?>
<svg id="Livello_1" data-name="Livello 1" xmlns="http://www.w3.org/2000/svg" viewBox="0 0 1080 1080">
  <defs>
    <style>
      .cls-1 {
        fill: #fff;
      }

      .cls-2, .cls-3 {
        fill: none;
        stroke: #fff;
        stroke-miterlimit: 10;
        stroke-width: 7px;
      }

      .cls-3 {
        stroke-linecap: round;
      }
    </style>
  </defs>
  <circle class="cls-2" cx="548.36" cy="549.64" r="54.22"/>
  <circle class="cls-1" cx="548.36" cy="549.64" r="40.81"/>
  <circle class="cls-2" cx="548.36" cy="549.64" r="75.42"/>
  <circle class="cls-2" cx="548.36" cy="549.64" r="106.2"/>
  <path class="cls-3" d="M760.94,521.4c-47.28-134.09-206.49-184.48-284.15-102.77-67.38,70.88-21.28,166.37,61.31,184.39"/>
  <path class="cls-3" d="M829.38,511.59c-64.1-181.79-279.95-250.12-385.25-139.34-91.35,96.1-28.86,225.56,83.12,249.99"/>
  <path class="cls-3" d="M925.44,497.86c-87.84-249.12-383.62-342.74-527.92-190.94-125.18,131.69-39.54,309.09,113.9,342.56"/>
  <path class="cls-3" d="M341.37,579.63c47.28,134.09,206.49,184.48,284.15,102.77,67.38-70.88,21.28-166.37-61.31-184.39"/>
  <path class="cls-3" d="M272.93,589.44c64.1,181.79,279.95,250.12,385.25,139.34,91.35-96.1,28.86-225.56-83.12-249.99"/>
  <path class="cls-3" d="M176.87,603.17c87.84,249.12,383.62,342.74,527.92,190.94,125.18-131.69,39.54-309.09-113.9-342.56"/>
</svg>