<?xml version="1.0" encoding="UTF-8"?>
<svg id="Livello_1" data-name="Livello 1" xmlns="http://www.w3.org/2000/svg" viewBox="0 0 1080 1080">
  <defs>
    <style>
      .cls-1 {
        fill: none;
      }

      .cls-1, .cls-2 {
        stroke: #fff;
        stroke-miterlimit: 10;
        stroke-width: 7px;
      }

      .cls-2 {
        fill: #fff;
      }
    </style>
  </defs>
  <path class="cls-2" d="M610.36,540c0,38.86-31.5,70.36-70.36,70.36s-70.36-31.5-70.36-70.36,31.5-70.36,70.36-70.36,70.36,31.5,70.36,70.36Z"/>
  <g>
    <path class="cls-1" d="M559.26,423.99c55.78,9.18,98.33,57.63,98.33,116.01s-42.55,106.83-98.33,116.01"/>
    <path class="cls-1" d="M520.73,656.01c-55.78-9.19-98.33-57.63-98.33-116.01s42.55-106.82,98.33-116.01"/>
    <path class="cls-1" d="M364.37,520.7c3.7-34.07,17.09-65.23,37.36-90.67"/>
    <path class="cls-1" d="M364.37,559.3c3.7,34.06,17.08,65.21,37.34,90.65"/>
    <path class="cls-1" d="M559.3,715.63c34.47-3.75,65.97-17.41,91.57-38.08"/>
    <path class="cls-1" d="M678.08,429.79c20.37,25.48,33.83,56.73,37.54,90.9"/>
    <path class="cls-1" d="M678.1,650.19c20.36-25.48,33.81-56.72,37.52-90.88"/>
    <path class="cls-1" d="M428.85,677.34c25.65,20.78,57.25,34.53,91.84,38.29"/>
    <path class="cls-1" d="M428.92,402.61c25.64-20.76,57.21-34.48,91.77-38.24"/>
    <path class="cls-1" d="M559.3,364.37c34.45,3.75,65.92,17.39,91.52,38.03"/>
    <path class="cls-1" d="M706.07,707.32c10.17-10.09,19.42-21.1,27.62-32.9"/>
    <path class="cls-1" d="M476.92,767.21c14.1,3.91,28.73,6.54,43.76,7.76"/>
    <path class="cls-1" d="M346.18,674.23c8.16,11.77,17.37,22.77,27.5,32.85"/>
    <path class="cls-1" d="M305.15,560.79c-.59-6.85-.9-13.79-.9-20.79s.32-14.26,.94-21.27"/>
    <path class="cls-1" d="M347.1,404.46c7.85-11.18,16.67-21.64,26.31-31.27"/>
    <path class="cls-1" d="M476.71,312.85c14.17-3.95,28.87-6.59,43.97-7.82"/>
    <path class="cls-1" d="M639.16,326.06c13.27,6.16,25.86,13.51,37.64,21.93"/>
    <path class="cls-1" d="M752.39,437.56c6.6,13.65,11.91,28.03,15.8,42.99"/>
    <path class="cls-1" d="M774.8,518.65c.63,7.03,.95,14.15,.95,21.35s-.31,13.99-.91,20.87"/>
    <path class="cls-1" d="M706.34,372.94c9.68,9.64,18.53,20.12,26.42,31.31"/>
    <path class="cls-1" d="M559.31,305.03c14.96,1.21,29.52,3.82,43.56,7.7"/>
    <path class="cls-1" d="M402.92,348.19c11.75-8.42,24.3-15.78,37.53-21.95"/>
    <path class="cls-1" d="M311.79,480.63c3.87-14.91,9.16-29.25,15.72-42.87"/>
    <path class="cls-1" d="M311.67,598.9c3.74,14.55,8.84,28.55,15.14,41.87"/>
    <path class="cls-1" d="M403.22,732.03c11.74,8.38,24.28,15.71,37.49,21.85"/>
    <path class="cls-1" d="M559.31,774.97c14.88-1.21,29.37-3.79,43.34-7.64"/>
    <path class="cls-1" d="M753.09,640.98c6.34-13.36,11.46-27.41,15.22-42"/>
    <path class="cls-1" d="M638.91,754.05c13.24-6.12,25.82-13.44,37.59-21.82"/>
    <path class="cls-1" d="M488.13,830.28c16.84,2.98,34.17,4.54,51.87,4.54s34.73-1.53,51.43-4.47"/>
    <path class="cls-1" d="M271.89,662.8c14.42,31.45,34.22,59.92,58.22,84.24"/>
    <path class="cls-1" d="M250.14,485.85c6.52-35.17,19.29-68.14,37.11-97.72"/>
    <path class="cls-1" d="M419.05,271.05c31.35-14.12,65.61-22.92,101.63-25.24"/>
    <path class="cls-1" d="M694.68,288.97c29,17.9,54.66,40.68,75.83,67.21"/>
    <path class="cls-1" d="M834.41,524.17c.28,5.24,.42,10.52,.42,15.83,0,30.25-4.55,59.43-13.02,86.9"/>
    <path class="cls-1" d="M628.96,821.16c33.6-10.62,64.59-27.09,91.79-48.23"/>
    <path class="cls-1" d="M749.67,747.27c24.05-24.33,43.9-52.82,58.36-84.3"/>
    <path class="cls-1" d="M792.62,387.9c17.88,29.63,30.69,62.65,37.23,97.89"/>
    <path class="cls-1" d="M559.31,245.81c35.88,2.31,70.01,11.05,101.26,25.07"/>
    <path class="cls-1" d="M309.32,356.39c21.12-26.51,46.73-49.3,75.66-67.21"/>
    <path class="cls-1" d="M245.59,524.21c-.28,5.23-.42,10.49-.42,15.79,0,30.2,4.54,59.34,12.98,86.77"/>
    <path class="cls-1" d="M358.97,772.72c27.15,21.15,58.1,37.65,91.65,48.31"/>
    <path class="cls-1" d="M520.68,893.38c-186.48-10.03-334.59-164.41-334.59-353.38S334.2,196.65,520.68,186.62"/>
    <path class="cls-1" d="M559.31,186.62c186.48,10.03,334.59,164.41,334.59,353.38s-148.11,343.35-334.59,353.38"/>
  </g>
  <path class="cls-1" d="M591.03,826.41c0,10.68,8.66,19.33,19.33,19.33s19.33-8.66,19.33-19.33-8.66-19.33-19.33-19.33-19.33,8.66-19.33,19.33Z"/>
  <path class="cls-1" d="M601.83,761.71c0,10.68,8.66,19.33,19.33,19.33s19.33-8.66,19.33-19.33-8.66-19.33-19.33-19.33-19.33,8.66-19.33,19.33Z"/>
  <path class="cls-1" d="M716.15,760.41c0,10.68,8.66,19.33,19.33,19.33s19.33-8.66,19.33-19.33-8.66-19.33-19.33-19.33-19.33,8.66-19.33,19.33Z"/>
  <path class="cls-1" d="M671.9,719.71c0,10.68,8.66,19.33,19.33,19.33s19.33-8.66,19.33-19.33-8.66-19.33-19.33-19.33-19.33,8.66-19.33,19.33Z"/>
  <path class="cls-1" d="M723.88,657.59c0,10.68,8.66,19.33,19.33,19.33s19.33-8.66,19.33-19.33-8.66-19.33-19.33-19.33-19.33,8.66-19.33,19.33Z"/>
  <path class="cls-1" d="M752.08,579.9c0,10.68,8.66,19.33,19.33,19.33s19.33-8.66,19.33-19.33-8.66-19.33-19.33-19.33-19.33,8.66-19.33,19.33Z"/>
  <path class="cls-1" d="M696.88,540c0,10.68,8.66,19.33,19.33,19.33s19.33-8.66,19.33-19.33-8.66-19.33-19.33-19.33-19.33,8.66-19.33,19.33Z"/>
  <path class="cls-1" d="M752.08,499.62c0,10.68,8.66,19.33,19.33,19.33s19.33-8.66,19.33-19.33-8.66-19.33-19.33-19.33-19.33,8.66-19.33,19.33Z"/>
  <path class="cls-1" d="M723.59,420.71c0,10.68,8.66,19.33,19.33,19.33s19.33-8.66,19.33-19.33-8.66-19.33-19.33-19.33-19.33,8.66-19.33,19.33Z"/>
  <path class="cls-1" d="M645.61,415.6c0,10.68,8.66,19.33,19.33,19.33s19.33-8.66,19.33-19.33-8.66-19.33-19.33-19.33-19.33,8.66-19.33,19.33Z"/>
  <path class="cls-1" d="M672.31,360.38c0,10.68,8.66,19.33,19.33,19.33s19.33-8.66,19.33-19.33-8.66-19.33-19.33-19.33-19.33,8.66-19.33,19.33Z"/>
  <path class="cls-1" d="M762.26,372.02c0,10.68,8.66,19.33,19.33,19.33s19.33-8.66,19.33-19.33-8.66-19.33-19.33-19.33-19.33,8.66-19.33,19.33Z"/>
  <path class="cls-1" d="M601.83,319.02c0,10.68,8.66,19.33,19.33,19.33s19.33-8.66,19.33-19.33-8.66-19.33-19.33-19.33-19.33,8.66-19.33,19.33Z"/>
  <path class="cls-1" d="M658.77,279.03c0,10.68,8.66,19.33,19.33,19.33s19.33-8.66,19.33-19.33-8.66-19.33-19.33-19.33-19.33,8.66-19.33,19.33Z"/>
  <path class="cls-1" d="M813.17,504.94c0,10.68,8.66,19.33,19.33,19.33s19.33-8.66,19.33-19.33-8.66-19.33-19.33-19.33-19.33,8.66-19.33,19.33Z"/>
  <path class="cls-1" d="M796.58,645.31c0,10.68,8.66,19.33,19.33,19.33s19.33-8.66,19.33-19.33-8.66-19.33-19.33-19.33-19.33,8.66-19.33,19.33Z"/>
  <path class="cls-1" d="M645.94,664.65c0,10.68,8.66,19.33,19.33,19.33s19.33-8.66,19.33-19.33-8.66-19.33-19.33-19.33-19.33,8.66-19.33,19.33Z"/>
  <path class="cls-1" d="M488.52,826.41c0,10.68-8.66,19.33-19.33,19.33s-19.33-8.66-19.33-19.33,8.66-19.33,19.33-19.33,19.33,8.66,19.33,19.33Z"/>
  <path class="cls-1" d="M477.72,761.71c0,10.68-8.66,19.33-19.33,19.33s-19.33-8.66-19.33-19.33,8.66-19.33,19.33-19.33,19.33,8.66,19.33,19.33Z"/>
  <path class="cls-1" d="M363.4,760.41c0,10.68-8.66,19.33-19.33,19.33s-19.33-8.66-19.33-19.33,8.66-19.33,19.33-19.33,19.33,8.66,19.33,19.33Z"/>
  <path class="cls-1" d="M407.64,719.71c0,10.68-8.66,19.33-19.33,19.33s-19.33-8.66-19.33-19.33,8.66-19.33,19.33-19.33,19.33,8.66,19.33,19.33Z"/>
  <path class="cls-1" d="M355.67,657.59c0,10.68-8.66,19.33-19.33,19.33s-19.33-8.66-19.33-19.33,8.66-19.33,19.33-19.33,19.33,8.66,19.33,19.33Z"/>
  <path class="cls-1" d="M327.47,579.9c0,10.68-8.66,19.33-19.33,19.33s-19.33-8.66-19.33-19.33,8.66-19.33,19.33-19.33,19.33,8.66,19.33,19.33Z"/>
  <path class="cls-1" d="M382.66,540c0,10.68-8.66,19.33-19.33,19.33s-19.33-8.66-19.33-19.33,8.66-19.33,19.33-19.33,19.33,8.66,19.33,19.33Z"/>
  <path class="cls-1" d="M327.47,499.62c0,10.68-8.66,19.33-19.33,19.33s-19.33-8.66-19.33-19.33,8.66-19.33,19.33-19.33,19.33,8.66,19.33,19.33Z"/>
  <path class="cls-1" d="M355.96,420.71c0,10.68-8.66,19.33-19.33,19.33s-19.33-8.66-19.33-19.33,8.66-19.33,19.33-19.33,19.33,8.66,19.33,19.33Z"/>
  <path class="cls-1" d="M433.94,415.6c0,10.68-8.66,19.33-19.33,19.33s-19.33-8.66-19.33-19.33,8.66-19.33,19.33-19.33,19.33,8.66,19.33,19.33Z"/>
  <path class="cls-1" d="M407.24,360.38c0,10.68-8.66,19.33-19.33,19.33s-19.33-8.66-19.33-19.33,8.66-19.33,19.33-19.33,19.33,8.66,19.33,19.33Z"/>
  <path class="cls-1" d="M317.29,372.02c0,10.68-8.66,19.33-19.33,19.33s-19.33-8.66-19.33-19.33,8.66-19.33,19.33-19.33,19.33,8.66,19.33,19.33Z"/>
  <path class="cls-1" d="M477.72,319.02c0,10.68-8.66,19.33-19.33,19.33s-19.33-8.66-19.33-19.33,8.66-19.33,19.33-19.33,19.33,8.66,19.33,19.33Z"/>
  <path class="cls-1" d="M420.78,279.03c0,10.68-8.66,19.33-19.33,19.33s-19.33-8.66-19.33-19.33,8.66-19.33,19.33-19.33,19.33,8.66,19.33,19.33Z"/>
  <path class="cls-1" d="M266.37,504.94c0,10.68-8.66,19.33-19.33,19.33s-19.33-8.66-19.33-19.33,8.66-19.33,19.33-19.33,19.33,8.66,19.33,19.33Z"/>
  <path class="cls-1" d="M282.97,645.31c0,10.68-8.66,19.33-19.33,19.33s-19.33-8.66-19.33-19.33,8.66-19.33,19.33-19.33,19.33,8.66,19.33,19.33Z"/>
  <path class="cls-1" d="M433.6,664.65c0,10.68-8.66,19.33-19.33,19.33s-19.33-8.66-19.33-19.33,8.66-19.33,19.33-19.33,19.33,8.66,19.33,19.33Z"/>
  <path class="cls-1" d="M559.33,186.1c0,10.68-8.66,19.33-19.33,19.33s-19.33-8.66-19.33-19.33,8.66-19.33,19.33-19.33,19.33,8.66,19.33,19.33Z"/>
  <path class="cls-1" d="M559.33,245.18c0,10.68-8.66,19.33-19.33,19.33s-19.33-8.66-19.33-19.33,8.66-19.33,19.33-19.33,19.33,8.66,19.33,19.33Z"/>
  <path class="cls-1" d="M559.33,304.25c0,10.68-8.66,19.33-19.33,19.33s-19.33-8.66-19.33-19.33,8.66-19.33,19.33-19.33,19.33,8.66,19.33,19.33Z"/>
  <path class="cls-1" d="M559.33,363.33c0,10.68-8.66,19.33-19.33,19.33s-19.33-8.66-19.33-19.33,8.66-19.33,19.33-19.33,19.33,8.66,19.33,19.33Z"/>
  <path class="cls-1" d="M559.33,422.41c0,10.68-8.66,19.33-19.33,19.33s-19.33-8.66-19.33-19.33,8.66-19.33,19.33-19.33,19.33,8.66,19.33,19.33Z"/>
  <path class="cls-1" d="M559.33,657.59c0,10.68-8.66,19.33-19.33,19.33s-19.33-8.66-19.33-19.33,8.66-19.33,19.33-19.33,19.33,8.66,19.33,19.33Z"/>
  <path class="cls-1" d="M559.33,716.67c0,10.68-8.66,19.33-19.33,19.33s-19.33-8.66-19.33-19.33,8.66-19.33,19.33-19.33,19.33,8.66,19.33,19.33Z"/>
  <path class="cls-1" d="M559.33,775.75c0,10.68-8.66,19.33-19.33,19.33s-19.33-8.66-19.33-19.33,8.66-19.33,19.33-19.33,19.33,8.66,19.33,19.33Z"/>
  <path class="cls-1" d="M559.33,893.9c0,10.68-8.66,19.33-19.33,19.33s-19.33-8.66-19.33-19.33,8.66-19.33,19.33-19.33,19.33,8.66,19.33,19.33Z"/>
</svg>