<?xml version="1.0" encoding="UTF-8"?>
<svg id="Livello_1" data-name="Livello 1" xmlns="http://www.w3.org/2000/svg" viewBox="0 0 1080 1080">
  <defs>
    <style>
      .cls-1 {
        fill: none;
        stroke: #fff;
        stroke-linecap: round;
        stroke-linejoin: round;
        stroke-width: 5px;
      }
    </style>
  </defs>
  <path class="cls-1" d="M344.24,393.74c1.41-1.87,2.82-3.71,4.29-5.54h0"/>
  <path class="cls-1" d="M376.42,358.49c22.39-20.19,48.54-36.3,77.27-47.15"/>
  <path class="cls-1" d="M501.92,298.62c-3.02,.46-6.02,.99-8.99,1.57"/>
  <path class="cls-1" d="M563.97,296.82c-7.03-.68-14.15-1.07-21.35-1.14"/>
  <path class="cls-1" d="M709.62,364.14c9.88,9.52,18.95,19.87,27.11,30.93"/>
  <path class="cls-1" d="M758.15,429.84c16.75,33.1,26.19,70.53,26.19,110.16,0,117.56-83.02,215.72-193.63,239.07"/>
  <path class="cls-1" d="M604.12,304.16c26.72,7.25,51.62,18.91,73.86,34.17"/>
  <path class="cls-1" d="M301.13,488.35c4.55-21.17,11.85-41.32,21.5-60.06"/>
  <path class="cls-1" d="M295.92,528.75c-.17,3.73-.26,7.48-.26,11.25,0,117.56,83.02,215.72,193.63,239.07"/>
  <rect class="cls-1" x="489.29" y="833.65" width="101.42" height="101.42"/>
  <line class="cls-1" x1="623.75" y1="540" x2="454.87" y2="540"/>
  <line class="cls-1" x1="539.31" y1="833.65" x2="539.31" y2="540"/>
  <line class="cls-1" x1="580.74" y1="319.95" x2="539.31" y2="540"/>
  <circle class="cls-1" cx="584.17" cy="299.81" r="20.43"/>
  <line class="cls-1" x1="539.31" y1="540" x2="523.96" y2="316.61"/>
  <circle class="cls-1" cx="522.21" cy="296.26" r="20.43"/>
  <line class="cls-1" x1="539.31" y1="540" x2="478.9" y2="324.38"/>
  <circle class="cls-1" cx="473.05" cy="304.82" r="20.43"/>
  <line class="cls-1" x1="539.31" y1="540" x2="376.57" y2="386.19"/>
  <circle class="cls-1" cx="361.49" cy="372.42" r="20.43"/>
  <line class="cls-1" x1="539.31" y1="540" x2="317.31" y2="510.67"/>
  <circle class="cls-1" cx="297.03" cy="508.35" r="20.43"/>
  <line class="cls-1" x1="539.31" y1="540" x2="349.73" y2="420.84"/>
  <circle class="cls-1" cx="332.25" cy="410.27" r="20.43"/>
  <line class="cls-1" x1="681.38" y1="366.92" x2="539.31" y2="540"/>
  <circle class="cls-1" cx="694.07" cy="350.92" r="20.43"/>
  <line class="cls-1" x1="730.4" y1="423.27" x2="539.31" y2="540"/>
  <circle class="cls-1" cx="747.64" cy="412.33" r="20.43"/>
</svg>