<?xml version="1.0" encoding="UTF-8"?>
<svg id="Livello_1" data-name="Livello 1" xmlns="http://www.w3.org/2000/svg" viewBox="0 0 1080 1080">
  <defs>
    <style>
      .cls-1 {
        fill: none;
        stroke: #fff;
        stroke-miterlimit: 10;
        stroke-width: 7.5px;
      }
    </style>
  </defs>
  <path class="cls-1" d="M932.81,329.61h85.29c3.3,0,5.97,2.67,5.97,5.97v47.88c0,3.3-2.67,5.97-5.97,5.97H299.45"/>
  <path class="cls-1" d="M257.14,389.43H77.23c-3.3,0-5.97-2.67-5.97-5.97v-47.88c0-3.3,2.67-5.97,5.97-5.97H893.14"/>
  <line class="cls-1" x1="298.89" y1="231.6" x2="328.48" y2="231.6"/>
  <path class="cls-1" d="M892.08,329.61H129.02c-6.31,0-8.78-10.59-3.54-15.12l94.38-81.51c1.05-.9,2.28-1.39,3.53-1.39h34.09"/>
  <path class="cls-1" d="M769.92,231.6h102c1.26,0,2.49,.48,3.53,1.39l94.38,81.51c5.25,4.53,2.77,15.12-3.53,15.12h-32.33"/>
  <rect class="cls-1" x="328.48" y="203.2" width="441.44" height="126.41" rx="11.37" ry="11.37"/>
  <path class="cls-1" d="M335.43,177.5h427.55c3.83,0,6.94,3.11,6.94,6.94v11.81c0,3.83-3.11,6.94-6.94,6.94H335.43c-3.83,0-6.94-3.11-6.94-6.94v-11.81c0-3.83,3.11-6.94,6.94-6.94Z"/>
  <path class="cls-1" d="M573.71,287.11v4.71c0,4.49-3.64,8.14-8.14,8.14h-32.73c-4.49,0-8.14-3.64-8.14-8.14v-50.83c0-4.49,3.64-8.14,8.14-8.14h32.73c4.49,0,8.14,3.64,8.14,8.14v4.71"/>
  <rect class="cls-1" x="380.07" y="232.86" width="49.01" height="67.1" rx="8.14" ry="8.14"/>
  <rect class="cls-1" x="669.34" y="232.86" width="49.01" height="67.1" rx="8.14" ry="8.14"/>
  <path class="cls-1" d="M848.76,451.37v-19.36c0-4.33,3.51-7.85,7.85-7.85h33.31c4.33,0,7.85,3.51,7.85,7.85v99.13c0,4.33-3.51,7.85-7.85,7.85h-33.31c-4.34,0-7.85-3.51-7.85-7.85v-38.36"/>
  <path class="cls-1" d="M856.6,601.9h33.31c4.33,0,7.85,3.52,7.85,7.85v91.85c0,4.33-3.52,7.85-7.85,7.85h-33.31c-4.33,0-7.85-3.52-7.85-7.85v-91.86c0-4.33,3.52-7.85,7.85-7.85Z"/>
  <line class="cls-1" x1="328.48" y1="389.43" x2="328.48" y2="906.64"/>
  <line class="cls-1" x1="769.92" y1="389.43" x2="769.92" y2="906.64"/>
  <path class="cls-1" d="M677.18,424.17h33.31c4.33,0,7.85,3.52,7.85,7.85v99.13c0,4.33-3.52,7.85-7.85,7.85h-33.31c-4.33,0-7.85-3.52-7.85-7.85v-99.13c0-4.33,3.52-7.85,7.85-7.85Z"/>
  <rect class="cls-1" x="524.79" y="424.17" width="49.01" height="114.82" rx="7.85" ry="7.85"/>
  <path class="cls-1" d="M388.1,424.17h33.31c4.33,0,7.85,3.52,7.85,7.85v99.13c0,4.33-3.52,7.85-7.85,7.85h-33.31c-4.33,0-7.85-3.52-7.85-7.85v-99.13c0-4.33,3.52-7.85,7.85-7.85Z"/>
  <path class="cls-1" d="M208.68,424.17h33.31c4.33,0,7.85,3.52,7.85,7.85v99.13c0,4.33-3.52,7.85-7.85,7.85h-33.31c-4.33,0-7.85-3.52-7.85-7.85v-99.13c0-4.33,3.52-7.85,7.85-7.85Z"/>
  <path class="cls-1" d="M677.18,601.9h33.31c4.33,0,7.85,3.52,7.85,7.85v91.85c0,4.33-3.52,7.85-7.85,7.85h-33.31c-4.33,0-7.85-3.52-7.85-7.85v-91.86c0-4.33,3.52-7.85,7.85-7.85Z"/>
  <line class="cls-1" x1="122.14" y1="743.35" x2="973.19" y2="743.35"/>
  <line class="cls-1" x1="912.78" y1="797.98" x2="967.52" y2="797.98"/>
  <line class="cls-1" x1="908.28" y1="797.98" x2="972.69" y2="797.98"/>
  <line class="cls-1" x1="770.11" y1="797.98" x2="838.24" y2="797.98"/>
  <line class="cls-1" x1="912.78" y1="852.31" x2="967.52" y2="852.31"/>
  <line class="cls-1" x1="770.11" y1="852.31" x2="838.24" y2="852.31"/>
  <line class="cls-1" x1="908.28" y1="852.31" x2="972.7" y2="852.31"/>
  <path class="cls-1" d="M838.24,846.03v24.5c0,4.94,4.01,8.95,8.95,8.95h52.15c4.94,0,8.95-4.01,8.95-8.95v-61.3c0-20.56-15.67-37.2-35.02-37.2s-35.02,16.65-35.02,37.2v36.8Z"/>
  <line class="cls-1" x1="256.53" y1="797.98" x2="328.48" y2="797.98"/>
  <line class="cls-1" x1="122.14" y1="797.98" x2="186.48" y2="797.98"/>
  <line class="cls-1" x1="256.53" y1="852.31" x2="328.48" y2="852.31"/>
  <line class="cls-1" x1="122.14" y1="852.31" x2="186.48" y2="852.31"/>
  <line class="cls-1" x1="730.03" y1="797.98" x2="770.11" y2="797.98"/>
  <line class="cls-1" x1="436.51" y1="797.98" x2="515.23" y2="797.98"/>
  <line class="cls-1" x1="328.48" y1="797.98" x2="366.47" y2="797.98"/>
  <line class="cls-1" x1="730.03" y1="852.31" x2="770.11" y2="852.31"/>
  <line class="cls-1" x1="328.48" y1="852.31" x2="366.47" y2="852.31"/>
  <line class="cls-1" x1="436.51" y1="852.31" x2="515.24" y2="852.31"/>
  <line class="cls-1" x1="584.23" y1="797.98" x2="658.81" y2="797.98"/>
  <line class="cls-1" x1="584.23" y1="852.31" x2="658.82" y2="852.31"/>
  <path class="cls-1" d="M256.24,804.44c-2.21-18.3-16.9-32.41-34.73-32.41-19.34,0-35.02,16.66-35.02,37.2v61.3c0,4.94,4.01,8.94,8.95,8.94h52.15c4.94,0,8.95-4.01,8.95-8.94v-24.68"/>
  <path class="cls-1" d="M658.82,846.03v24.5c0,4.94,4.01,8.95,8.95,8.95h52.15c4.94,0,8.94-4.01,8.94-8.95v-61.3c0-20.56-15.66-37.2-35.02-37.2s-35.02,16.65-35.02,37.2v36.8Z"/>
  <path class="cls-1" d="M366.47,846.03v24.5c0,4.94,4.01,8.95,8.95,8.95h52.15c4.94,0,8.94-4.01,8.94-8.95v-61.3c0-20.56-15.66-37.2-35.02-37.2s-35.02,16.65-35.02,37.2v36.8Z"/>
  <path class="cls-1" d="M584.23,845.85v46.06c0,8.14,6.6,14.74,14.74,14.74"/>
  <path class="cls-1" d="M499.45,906.64c8.14,0,14.74-6.6,14.74-14.74v-82.68c0-20.54,15.68-37.2,35.02-37.2,17.83,0,32.53,14.12,34.73,32.41"/>
  <path class="cls-1" d="M122.14,698.7v193.21c0,8.14,4.93,14.74,11.01,14.74H499.45"/>
  <path class="cls-1" d="M257.14,389.43h-123.99c-6.08,0-11.01,6.6-11.01,14.74v253.13"/>
  <path class="cls-1" d="M973.19,523.22v-119.06c0-8.14-4.93-14.73-11.01-14.73H299.44"/>
  <path class="cls-1" d="M598.96,906.64h363.22c6.08,0,11.01-6.6,11.01-14.74v-327.32"/>
  <circle class="cls-1" cx="848.76" cy="472.08" r="20.7" transform="translate(.97 945.89) rotate(-58.28)"/>
  <circle class="cls-1" cx="277.85" cy="389.43" r="20.7" transform="translate(-193.99 310.53) rotate(-45)"/>
  <path class="cls-1" d="M532.64,601.9h33.31c4.33,0,7.85,3.52,7.85,7.85v91.85c0,4.33-3.52,7.85-7.85,7.85h-33.31c-4.33,0-7.85-3.52-7.85-7.85v-91.86c0-4.33,3.52-7.85,7.85-7.85Z"/>
  <path class="cls-1" d="M429.07,673.24v28.37c0,4.33-3.51,7.85-7.85,7.85h-33.31c-4.33,0-7.85-3.51-7.85-7.85v-91.86c0-4.33,3.51-7.85,7.85-7.85h33.31c4.33,0,7.85,3.51,7.85,7.85v22.08"/>
  <path class="cls-1" d="M208.68,601.9h33.31c4.33,0,7.85,3.52,7.85,7.85v91.85c0,4.33-3.52,7.85-7.85,7.85h-33.31c-4.33,0-7.85-3.52-7.85-7.85v-91.86c0-4.33,3.52-7.85,7.85-7.85Z"/>
  <circle class="cls-1" cx="573.8" cy="266.41" r="20.7" transform="translate(45.52 614.45) rotate(-58.28)"/>
  <circle class="cls-1" cx="257.48" cy="825.15" r="20.7" transform="translate(-508.05 423.75) rotate(-45)"/>
  <circle class="cls-1" cx="587.03" cy="825.15" r="20.7" transform="translate(-423.51 890.7) rotate(-58.28)"/>
  <circle class="cls-1" cx="429.26" cy="652.53" r="20.7" transform="translate(-335.68 494.66) rotate(-45)"/>
  <circle class="cls-1" cx="912.78" cy="329.61" r="20.7" transform="translate(152.52 932.79) rotate(-58.28)"/>
  <circle class="cls-1" cx="278.19" cy="231.6" r="20.7" transform="translate(-82.29 264.54) rotate(-45)"/>
  <circle class="cls-1" cx="973.19" cy="543.92" r="20.7" transform="translate(-1.14 1085.81) rotate(-58.28)"/>
  <circle class="cls-1" cx="122.63" cy="678" r="20.7" transform="translate(-443.5 285.3) rotate(-45)"/>
</svg>