<?xml version="1.0" encoding="UTF-8" standalone="no"?>
<svg
   id="a"
   viewBox="0 0 148.9 30.04"
   version="1.1"
   width="148.89999"
   height="30.040001"
   xmlns="http://www.w3.org/2000/svg"
   xmlns:svg="http://www.w3.org/2000/svg">
  <defs
     id="defs4">
    <style
       id="style2">.b{fill:none;}.b,.c{stroke:#1d1d1b;stroke-miterlimit:10;stroke-width:1.5px;}.d{fill:#1d1d1b;}.c{fill:#fff;}</style>
  </defs>
  <g
     id="g42"
     transform="translate(0,0.01)">
    <g
       id="g10"
       style="stroke:#336fa2;stroke-opacity:1">
      <path
         class="b"
         d="m 23.43,9.25 c 0,-4.69 -3.81,-8.5 -8.51,-8.5 -4.7,0 -8.5,3.81 -8.5,8.5 v 11.34 c 0,4.7 3.81,8.5 8.5,8.5 4.69,0 8.5,-3.81 8.5,-8.5 0,-1.57 -1.27,-2.83 -2.83,-2.83 -1.56,0 -2.83,1.27 -2.83,2.83 0,4.7 -3.81,8.5 -8.5,8.5 -4.69,0 -8.51,-3.8 -8.51,-8.5 V 9.25 c 0,-4.69 3.81,-8.5 8.5,-8.5 4.69,0 8.5,3.81 8.5,8.5 0,1.57 1.27,2.83 2.83,2.83 1.56,0 2.83,-1.27 2.83,-2.83 z"
         id="path6"
         style="stroke:#336fa2;stroke-opacity:1" />
      <path
         class="c"
         d="m 9.25,14.92 c 0,1.57 -1.27,2.83 -2.83,2.83 -1.56,0 -2.83,-1.27 -2.83,-2.83 0,-1.56 1.27,-2.83 2.83,-2.83 1.56,0 2.83,1.27 2.83,2.83 z"
         id="path8"
         style="stroke:#336fa2;stroke-opacity:1" />
    </g>
    <g
       id="g16"
       style="stroke:#336fa2;stroke-opacity:1">
      <path
         class="b"
         d="m 29.26,25.6 c -0.2,0.82 -0.09,1.73 0.43,2.4 0.52,0.67 1.33,1.1 2.24,1.1 0.91,0 1.73,-0.43 2.24,-1.1 0.52,-0.67 0.63,-1.57 0.43,-2.4 L 29.26,4.25 c -0.2,-0.82 -0.09,-1.73 0.43,-2.4 0.52,-0.67 1.33,-1.1 2.24,-1.1 0.91,0 1.73,0.43 2.24,1.1 0.52,0.67 0.63,1.57 0.43,2.4 z"
         id="path12"
         style="stroke:#336fa2;stroke-opacity:1" />
      <path
         class="c"
         d="m 29.1,14.92 c 0,1.57 1.27,2.83 2.83,2.83 1.56,0 2.83,-1.27 2.83,-2.83 0,-1.56 -1.27,-2.83 -2.83,-2.83 -1.56,0 -2.83,1.27 -2.83,2.83 z"
         id="path14"
         style="stroke:#336fa2;stroke-opacity:1" />
    </g>
    <g
       id="g22"
       style="stroke:#336fa2;stroke-opacity:1">
      <path
         class="b"
         d="m 97.13,9.25 c 0,-4.88 4.12,-8.81 9.07,-8.49 4.52,0.29 7.94,4.25 7.94,8.78 v 11.21 c 0,1.48 1.2,2.67 2.67,2.67 v 0 c 1.53,0 2.91,1.15 2.99,2.68 0.09,1.63 -1.21,2.99 -2.83,2.99 -2.83,0 -14.17,-5.67 -17.01,-5.67 -1.57,0 -2.83,1.27 -2.83,2.83 0,1.56 1.27,2.83 2.83,2.83 2.83,0 19.84,-6.63 19.84,-19.84 0,-4.7 -3.81,-8.5 -8.5,-8.5 -4.69,0 -8.5,3.81 -8.5,8.5 0,1.57 -1.27,2.83 -2.83,2.83 -1.56,0 -2.83,-1.27 -2.83,-2.83 z"
         id="path18"
         style="stroke:#336fa2;stroke-opacity:1" />
      <path
         class="c"
         d="m 116.97,9.25 c 0,1.57 -1.27,2.83 -2.83,2.83 -1.56,0 -2.83,-1.27 -2.83,-2.83 0,-1.56 1.27,-2.83 2.83,-2.83 1.56,0 2.83,1.27 2.83,2.83 z"
         id="path20"
         style="stroke:#336fa2;stroke-opacity:1" />
    </g>
    <g
       id="g28"
       style="stroke:#336fa2;stroke-opacity:1">
      <path
         class="c"
         d="m 139.65,14.92 c 0,1.57 -1.27,2.83 -2.83,2.83 -1.56,0 -2.83,-1.27 -2.83,-2.83 0,-1.56 1.27,-2.83 2.83,-2.83 1.56,0 2.83,1.27 2.83,2.83 z"
         id="path24"
         style="stroke:#336fa2;stroke-opacity:1" />
      <path
         class="b"
         d="m 139.65,14.92 h 2.83 c 3.13,0 5.67,2.54 5.67,5.67 0,4.7 -3.81,8.5 -8.5,8.5 -4.69,0 -8.5,-3.81 -8.5,-8.5 0,-1.57 -1.27,-2.83 -2.83,-2.83 -1.56,0 -2.83,1.27 -2.83,2.83 0,4.7 3.81,8.5 8.5,8.5 4.69,0 8.5,-3.81 8.5,-8.5 V 9.25 c 0,-4.7 -3.81,-8.5 -8.5,-8.5 -4.69,0 -8.5,3.81 -8.5,8.5 0,1.57 1.27,2.83 2.83,2.83 1.56,0 2.83,-1.27 2.83,-2.83 0,-4.7 3.81,-8.5 8.5,-8.5 4.69,0 8.5,3.81 8.5,8.5 0,3.13 -2.54,5.67 -5.67,5.67"
         id="path26"
         style="stroke:#336fa2;stroke-opacity:1" />
    </g>
    <g
       id="g34"
       style="stroke:#336fa2;stroke-opacity:1">
      <path
         class="b"
         d="m 63.11,9.25 c 0,-4.7 -3.81,-8.5 -8.5,-8.5 -4.69,0 -8.5,3.81 -8.5,8.5 0,3.13 2.54,5.67 5.67,5.67 3.13,0 5.67,2.54 5.67,5.67 0,4.7 -3.81,8.5 -8.5,8.5 -4.69,0 -8.5,-3.81 -8.5,-8.5 0,-1.57 1.27,-2.83 2.83,-2.83 1.56,0 2.83,1.27 2.83,2.83 0,4.7 3.81,8.5 8.5,8.5 4.69,0 8.5,-3.81 8.5,-8.5 0,-3.13 -2.54,-5.67 -5.67,-5.67 H 46.1 c -3.13,0 -5.67,-2.54 -5.67,-5.67 0,-4.7 3.81,-8.5 8.5,-8.5 4.69,0 8.5,3.81 8.5,8.5 0,1.57 1.27,2.83 2.83,2.83 1.56,0 2.83,-1.27 2.83,-2.83 z"
         id="path30"
         style="stroke:#336fa2;stroke-opacity:1" />
      <path
         class="c"
         d="m 48.94,14.92 c 0,1.57 1.27,2.83 2.83,2.83 1.56,0 2.83,-1.27 2.83,-2.83 0,-1.56 -1.27,-2.83 -2.83,-2.83 -1.56,0 -2.83,1.27 -2.83,2.83 z"
         id="path32"
         style="stroke:#336fa2;stroke-opacity:1" />
    </g>
    <g
       id="g40"
       style="stroke:#336fa2;stroke-opacity:1">
      <path
         class="b"
         d="m 80.12,14.92 h -5.67 c -3.13,0 -5.67,2.54 -5.67,5.67 v 5.86 c 0,1.57 1.27,2.83 2.83,2.83 1.56,0 2.83,-1.27 2.83,-2.83 V 9.25 c 0,-4.7 3.81,-8.5 8.51,-8.5 4.7,0 8.5,3.81 8.5,8.5 0,1.57 -1.27,2.83 -2.83,2.83 -1.56,0 -2.83,-1.27 -2.83,-2.83 0,-4.7 -3.81,-8.5 -8.5,-8.5 -4.69,0 -8.5,3.81 -8.5,8.5 0,3.13 2.54,5.67 5.67,5.67 h 5.67"
         id="path36"
         style="stroke:#336fa2;stroke-opacity:1" />
      <path
         class="c"
         d="m 77.29,14.92 c 0,1.57 1.27,2.83 2.83,2.83 1.56,0 2.83,-1.27 2.83,-2.83 0,-1.56 -1.27,-2.83 -2.83,-2.83 -1.56,0 -2.83,1.27 -2.83,2.83 z"
         id="path38"
         style="stroke:#336fa2;stroke-opacity:1" />
    </g>
  </g>
</svg>
